<svg width="31" height="31" viewBox="0 0 31 31" fill="none" xmlns="http://www.w3.org/2000/svg">
<path fill-rule="evenodd" clip-rule="evenodd" d="M6.78125 19.375C6.52432 19.375 6.27792 19.2729 6.09624 19.0913C5.91456 18.9096 5.8125 18.6632 5.8125 18.4062V2.90625C5.8125 2.64932 5.91456 2.40292 6.09624 2.22124C6.27792 2.03956 6.52432 1.9375 6.78125 1.9375H24.2188C24.4757 1.9375 24.7221 2.03956 24.9038 2.22124C25.0854 2.40292 25.1875 2.64932 25.1875 2.90625V18.4062C25.1875 18.6632 25.0854 18.9096 24.9038 19.0913C24.7221 19.2729 24.4757 19.375 24.2188 19.375H20.3438C20.0868 19.375 19.8404 19.4771 19.6587 19.6587C19.4771 19.8404 19.375 20.0868 19.375 20.3438C19.375 20.6007 19.4771 20.8471 19.6587 21.0288C19.8404 21.2104 20.0868 21.3125 20.3438 21.3125H24.2188C24.9895 21.3125 25.7288 21.0063 26.2738 20.4613C26.8188 19.9163 27.125 19.177 27.125 18.4062V2.90625C27.125 2.13546 26.8188 1.39625 26.2738 0.851221C25.7288 0.306193 24.9895 0 24.2188 0L6.78125 0C6.01046 0 5.27125 0.306193 4.72622 0.851221C4.18119 1.39625 3.875 2.13546 3.875 2.90625V18.4062C3.875 19.177 4.18119 19.9163 4.72622 20.4613C5.27125 21.0063 6.01046 21.3125 6.78125 21.3125H10.6562C10.9132 21.3125 11.1596 21.2104 11.3413 21.0288C11.5229 20.8471 11.625 20.6007 11.625 20.3438C11.625 20.0868 11.5229 19.8404 11.3413 19.6587C11.1596 19.4771 10.9132 19.375 10.6562 19.375H6.78125Z" fill="white"/>
<path fill-rule="evenodd" clip-rule="evenodd" d="M14.8153 8.0329C14.9053 7.94268 15.0122 7.8711 15.1299 7.82227C15.2476 7.77343 15.3738 7.74829 15.5012 7.74829C15.6286 7.74829 15.7548 7.77343 15.8725 7.82227C15.9902 7.8711 16.0971 7.94268 16.1871 8.0329L21.9996 13.8454C22.1815 14.0273 22.2837 14.274 22.2837 14.5313C22.2837 14.7885 22.1815 15.0352 21.9996 15.2171C21.8177 15.3991 21.571 15.5012 21.3137 15.5012C21.0565 15.5012 20.8098 15.3991 20.6278 15.2171L16.47 11.0573V28.0938C16.47 28.3507 16.3679 28.5971 16.1862 28.7788C16.0046 28.9605 15.7582 29.0625 15.5012 29.0625C15.2443 29.0625 14.9979 28.9605 14.8162 28.7788C14.6345 28.5971 14.5325 28.3507 14.5325 28.0938V11.0573L10.3746 15.2171C10.1927 15.3991 9.94598 15.5012 9.68872 15.5012C9.43147 15.5012 9.18475 15.3991 9.00285 15.2171C8.82094 15.0352 8.71875 14.7885 8.71875 14.5313C8.71875 14.274 8.82094 14.0273 9.00285 13.8454L14.8153 8.0329Z" fill="white"/>
</svg>
