<svg width="31" height="31" viewBox="0 0 31 31" fill="none" xmlns="http://www.w3.org/2000/svg">
<path d="M25.1875 3.875V27.125H5.8125V3.875H25.1875ZM25.1875 1.9375H5.8125C5.29864 1.9375 4.80583 2.14163 4.44248 2.50498C4.07913 2.86833 3.875 3.36114 3.875 3.875V27.125C3.875 27.6389 4.07913 28.1317 4.44248 28.495C4.80583 28.8584 5.29864 29.0625 5.8125 29.0625H25.1875C25.7014 29.0625 26.1942 28.8584 26.5575 28.495C26.9209 28.1317 27.125 27.6389 27.125 27.125V3.875C27.125 3.36114 26.9209 2.86833 26.5575 2.50498C26.1942 2.14163 25.7014 1.9375 25.1875 1.9375Z" fill="white"/>
<path d="M8.71875 22.2812H10.6562V24.2188H8.71875V22.2812ZM20.3438 22.2812H22.2812V24.2188H20.3438V22.2812ZM8.71875 17.4375H10.6562V19.375H8.71875V17.4375ZM20.3438 17.4375H22.2812V19.375H20.3438V17.4375ZM8.71875 12.5938H10.6562V14.5312H8.71875V12.5938ZM14.5312 22.2812H16.4688V24.2188H14.5312V22.2812ZM14.5312 17.4375H16.4688V19.375H14.5312V17.4375ZM14.5312 12.5938H16.4688V14.5312H14.5312V12.5938ZM20.3438 12.5938H22.2812V14.5312H20.3438V12.5938ZM8.71875 6.78125H22.2812V9.6875H8.71875V6.78125Z" fill="white"/>
</svg>
