<svg width="28" height="28" viewBox="0 0 28 28" fill="none" xmlns="http://www.w3.org/2000/svg">
<path fill-rule="evenodd" clip-rule="evenodd" d="M21.9583 16.324C21.6284 16.1888 21.2753 16.1193 20.9188 16.1193C20.5856 16.1003 20.2527 16.1609 19.9475 16.296C19.6835 16.4234 19.4317 16.5745 19.195 16.7475C18.9647 16.9146 18.754 17.1072 18.5668 17.3215C18.3848 17.5315 18.208 17.724 18.0348 17.8973C17.8775 18.0563 17.7078 18.2026 17.5273 18.3348C17.3451 18.4653 17.1219 18.526 16.8987 18.5058C16.6754 18.4855 16.4668 18.3857 16.311 18.2245C16.1184 18.0438 15.9271 17.8618 15.737 17.6785C15.492 17.4405 15.191 17.1535 14.8358 16.8158C14.464 16.4631 14.0948 16.1079 13.728 15.75L12.538 14.588C11.8074 13.8736 11.1012 13.1347 10.4205 12.3725C10.1761 12.1038 9.94763 11.821 9.7363 11.5255C9.5718 11.2893 9.48955 11.116 9.48955 11.0057C9.47938 10.8082 9.5423 10.6139 9.6663 10.4598C9.79405 10.2953 9.9463 10.1272 10.1178 9.95225C10.2928 9.78075 10.4835 9.597 10.6918 9.40625C10.9018 9.21375 11.0943 9.009 11.2675 8.79025C11.439 8.5715 11.586 8.32125 11.705 8.03775C11.8223 7.75775 11.8818 7.4375 11.8818 7.08225C11.8818 6.36011 11.5969 5.66713 11.089 5.15375C10.7621 4.8328 10.4519 4.49519 10.1598 4.14225C9.82591 3.74467 9.46515 3.37045 9.08005 3.02225C8.70621 2.68013 8.29804 2.37753 7.86205 2.11925C7.46607 1.87955 7.01242 1.75192 6.54955 1.75C5.82801 1.75048 5.13574 2.03531 4.6228 2.54275C4.14855 3.017 3.7338 3.4405 3.37855 3.815C3.03761 4.16958 2.73495 4.55906 2.47555 4.977C2.22415 5.3917 2.03988 5.84352 1.92955 6.31575C1.80109 6.89946 1.74118 7.49616 1.75105 8.09375C1.75105 9.05975 1.9068 10.0625 2.21655 11.102C2.5263 12.1397 2.94455 13.1757 3.47305 14.2047C4.00155 15.2355 4.64555 16.247 5.40155 17.241C6.15755 18.2332 6.9783 19.1765 7.86205 20.0707C8.7458 20.9632 9.68555 21.7893 10.6795 22.5452C11.6718 23.3013 12.6885 23.954 13.728 24.5C14.7658 25.0478 15.8105 25.4748 16.8588 25.7845C17.8519 26.0864 18.8834 26.2432 19.9213 26.25C20.5145 26.2497 21.106 26.1851 21.6853 26.0575C22.1627 25.9497 22.6196 25.7653 23.038 25.5115C23.4405 25.2665 23.8255 24.9655 24.2 24.6102C24.5745 24.2533 24.9928 23.8438 25.4583 23.3783C25.966 22.8648 26.2508 22.1719 26.251 21.4497C26.2312 21.1428 26.1712 20.8398 26.0725 20.5485C25.9702 20.2434 25.8182 19.9572 25.6228 19.7015C25.4186 19.4335 25.2037 19.1737 24.9788 18.9227C24.747 18.6632 24.5011 18.4166 24.242 18.1842C23.9919 17.96 23.7411 17.7366 23.4895 17.514C23.2694 17.3199 23.0552 17.1191 22.8473 16.912C22.5938 16.6579 22.2914 16.4578 21.9583 16.324ZM21.316 24.3495C20.8595 24.4592 20.3907 24.5098 19.9213 24.5C19.0216 24.483 18.1286 24.3404 17.2683 24.0765C16.3057 23.7856 15.3756 23.3962 14.4928 22.9145C12.5301 21.8398 10.734 20.4858 9.16055 18.8948C8.36079 18.0859 7.60766 17.2323 6.9048 16.338C6.22243 15.4734 5.61916 14.5492 5.1023 13.5765C4.62056 12.6771 4.22617 11.7337 3.92455 10.759C3.65049 9.88304 3.50778 8.9713 3.50105 8.0535C3.5006 7.58776 3.55583 7.12363 3.66555 6.671C3.7653 6.2895 3.9158 5.9465 4.11705 5.64725C4.31655 5.34625 4.5633 5.054 4.8538 4.77225C5.14605 4.48875 5.47855 4.15975 5.8513 3.787C5.94204 3.69369 6.05102 3.62006 6.17144 3.57069C6.29187 3.52131 6.42117 3.49725 6.5513 3.5C6.6598 3.49125 6.8278 3.563 7.0553 3.71875C7.2828 3.8745 7.52955 4.06 7.7938 4.27875C8.36447 4.75477 8.89103 5.28132 9.36705 5.852C9.5858 6.1145 9.7678 6.35775 9.91305 6.5765C10.0583 6.79525 10.1318 6.96325 10.1318 7.08225C10.1475 7.28048 10.0839 7.47684 9.95505 7.62825C9.8273 7.77525 9.67505 7.94325 9.50355 8.13575C9.32855 8.3265 9.1378 8.5085 8.92955 8.68175C8.71955 8.855 8.52705 9.05975 8.3538 9.296C8.1799 9.53442 8.03315 9.79152 7.9163 10.0625C7.79299 10.362 7.73282 10.6837 7.73955 11.0075C7.7483 11.3802 7.8218 11.7302 7.9583 12.0575C8.0948 12.3865 8.2908 12.6788 8.5463 12.9325L15.0668 19.4548C15.3177 19.7116 15.6178 19.9153 15.9491 20.0536C16.2804 20.1919 16.6363 20.262 16.9953 20.2598C17.3237 20.2772 17.6516 20.2172 17.9525 20.0848C18.4782 19.8412 18.9482 19.4921 19.3333 19.0592C19.5258 18.8492 19.7008 18.6567 19.867 18.4835C20.0298 18.312 20.1995 18.165 20.3728 18.046C20.5323 17.9324 20.723 17.8707 20.9188 17.8693C21.0465 17.8693 21.2198 17.9428 21.4385 18.088C21.6573 18.2333 21.8988 18.4205 22.163 18.648C22.4273 18.8755 22.7003 19.1275 22.9838 19.4005C23.2655 19.6735 23.5175 19.9465 23.7363 20.2213C23.9533 20.4943 24.137 20.741 24.2823 20.9598C24.4275 21.1785 24.501 21.3447 24.501 21.4655C24.5023 21.5928 24.4775 21.7191 24.4282 21.8364C24.3788 21.9538 24.3059 22.0599 24.214 22.148C23.822 22.5312 23.4895 22.8655 23.2165 23.1455C22.9512 23.4213 22.658 23.6688 22.3415 23.884C22.0282 24.0955 21.6815 24.2528 21.316 24.3495ZM26.251 2.982L18.131 11.116H23.885V12.866H15.135V4.116H16.885V9.87L25.0208 1.75L26.251 2.98025V2.982Z" fill="white"/>
</svg>
