<svg width="31" height="31" viewBox="0 0 31 31" fill="none" xmlns="http://www.w3.org/2000/svg">
<path d="M23.25 23.25V27.125H7.75V23.25H5.8125V27.125C5.8125 27.6389 6.01663 28.1317 6.37998 28.495C6.74333 28.8584 7.23614 29.0625 7.75 29.0625H23.25C23.7639 29.0625 24.2567 28.8584 24.62 28.495C24.9834 28.1317 25.1875 27.6389 25.1875 27.125V23.25H23.25Z" fill="white"/>
<path d="M20.3438 20.3438L18.9739 18.9739L16.4688 21.4791V13.5625H14.5312V21.4791L12.0261 18.9739L10.6562 20.3438L15.5 25.1875L20.3438 20.3438ZM27.125 3.875V1.9375H21.3125V11.625H23.25V7.75H26.1562V5.8125H23.25V3.875H27.125ZM16.4688 11.625H12.5938V1.9375H16.4688C17.2393 1.93827 17.9781 2.24471 18.5229 2.78957C19.0678 3.33443 19.3742 4.0732 19.375 4.84375V8.71875C19.3742 9.4893 19.0678 10.2281 18.5229 10.7729C17.9781 11.3178 17.2393 11.6242 16.4688 11.625ZM14.5312 9.6875H16.4688C16.7256 9.68724 16.9719 9.5851 17.1535 9.40348C17.3351 9.22186 17.4372 8.9756 17.4375 8.71875V4.84375C17.4372 4.5869 17.3351 4.34064 17.1535 4.15902C16.9719 3.9774 16.7256 3.87526 16.4688 3.875H14.5312V9.6875ZM8.71875 1.9375H3.875V11.625H5.8125V8.71875H8.71875C9.23237 8.71798 9.72473 8.51361 10.0879 8.15042C10.4511 7.78723 10.6555 7.29487 10.6562 6.78125V3.875C10.6557 3.3613 10.4514 2.86879 10.0882 2.50555C9.72496 2.14231 9.23245 1.93801 8.71875 1.9375ZM5.8125 6.78125V3.875H8.71875L8.71972 6.78125H5.8125Z" fill="white"/>
</svg>
