<svg aria-hidden="true" style="position: absolute; width: 0; height: 0; overflow: hidden;" version="1.1" xmlns="http://www.w3.org/2000/svg" xmlns:xlink="http://www.w3.org/1999/xlink">
<defs>
<symbol id="icon-cross" viewBox="0 0 33 32">
<path fill="#d9d9d9" style="fill: var(--color1, #d9d9d9)" d="M2.951 1.28l27.546 27.546c0.543 0.543 0.543 1.424 0 1.968s-1.424 0.543-1.968 0l-27.546-27.546c-0.543-0.543-0.543-1.424 0-1.968s1.424-0.543 1.968 0z"></path>
<path fill="#d9d9d9" style="fill: var(--color1, #d9d9d9)" d="M1.56 28.53l27.546-27.546c0.543-0.543 1.424-0.543 1.968 0s0.543 1.424 0 1.968l-27.546 27.546c-0.543 0.543-1.424 0.543-1.968 0s-0.543-1.424 0-1.968z"></path>
</symbol>
<symbol id="icon-menu" viewBox="0 0 48 32">
<path fill="#d9d9d9" style="fill: var(--color1, #d9d9d9)" d="M1.6 0h44.8c0.884 0 1.6 0.716 1.6 1.6s-0.716 1.6-1.6 1.6h-44.8c-0.884 0-1.6-0.716-1.6-1.6s0.716-1.6 1.6-1.6z"></path>
<path fill="#d9d9d9" style="fill: var(--color1, #d9d9d9)" d="M1.6 14.4h44.8c0.884 0 1.6 0.716 1.6 1.6s-0.716 1.6-1.6 1.6h-44.8c-0.884 0-1.6-0.716-1.6-1.6s0.716-1.6 1.6-1.6z"></path>
<path fill="#d9d9d9" style="fill: var(--color1, #d9d9d9)" d="M1.6 28.8h44.8c0.884 0 1.6 0.716 1.6 1.6s-0.716 1.6-1.6 1.6h-44.8c-0.884 0-1.6-0.716-1.6-1.6s0.716-1.6 1.6-1.6z"></path>
</symbol>
<symbol id="icon-arrow-in-up" viewBox="0 0 32 32">
<path fill="#fff" style="fill: var(--color2, #fff)" d="M7 20c-0.265 0-0.52-0.105-0.707-0.293s-0.293-0.442-0.293-0.707v-16c0-0.265 0.105-0.52 0.293-0.707s0.442-0.293 0.707-0.293h18c0.265 0 0.52 0.105 0.707 0.293s0.293 0.442 0.293 0.707v16c0 0.265-0.105 0.52-0.293 0.707s-0.442 0.293-0.707 0.293h-4c-0.265 0-0.52 0.105-0.707 0.293s-0.293 0.442-0.293 0.707c0 0.265 0.105 0.52 0.293 0.707s0.442 0.293 0.707 0.293h4c0.796 0 1.559-0.316 2.121-0.879s0.879-1.326 0.879-2.121v-16c0-0.796-0.316-1.559-0.879-2.121s-1.326-0.879-2.121-0.879h-18c-0.796 0-1.559 0.316-2.121 0.879s-0.879 1.326-0.879 2.121v16c0 0.796 0.316 1.559 0.879 2.121s1.326 0.879 2.121 0.879h4c0.265 0 0.52-0.105 0.707-0.293s0.293-0.442 0.293-0.707c0-0.265-0.105-0.52-0.293-0.707s-0.442-0.293-0.707-0.293h-4z"></path>
<path fill="#fff" style="fill: var(--color2, #fff)" d="M15.293 8.292c0.093-0.093 0.203-0.167 0.325-0.217s0.252-0.076 0.383-0.076c0.131 0 0.262 0.026 0.383 0.076s0.232 0.124 0.325 0.217l6 6c0.188 0.188 0.293 0.442 0.293 0.708s-0.105 0.52-0.293 0.708c-0.188 0.188-0.442 0.293-0.708 0.293s-0.52-0.105-0.708-0.293l-4.292-4.294v17.586c0 0.265-0.105 0.52-0.293 0.707s-0.442 0.293-0.707 0.293c-0.265 0-0.52-0.105-0.707-0.293s-0.293-0.442-0.293-0.707v-17.586l-4.292 4.294c-0.188 0.188-0.442 0.293-0.708 0.293s-0.52-0.105-0.708-0.293c-0.188-0.188-0.293-0.442-0.293-0.708s0.105-0.52 0.293-0.708l6-6z"></path>
</symbol>
<symbol id="icon-arrow-right" viewBox="0 0 20 32">
<path fill="#fff" style="fill: var(--color2, #fff)" d="M4.62 29.706l-2.747-2.718 11.254-11.136-11.254-11.136 2.747-2.718 13.883 13.854-13.883 13.854z"></path>
</symbol>
<symbol id="icon-calculator" viewBox="0 0 32 32">
<path fill="#fff" style="fill: var(--color2, #fff)" d="M26 4v24h-20v-24h20zM26 2h-20c-0.53 0-1.039 0.211-1.414 0.586s-0.586 0.884-0.586 1.414v24c0 0.53 0.211 1.039 0.586 1.414s0.884 0.586 1.414 0.586h20c0.53 0 1.039-0.211 1.414-0.586s0.586-0.884 0.586-1.414v-24c0-0.53-0.211-1.039-0.586-1.414s-0.884-0.586-1.414-0.586z"></path>
<path fill="#fff" style="fill: var(--color2, #fff)" d="M9 23h2v2h-2v-2zM21 23h2v2h-2v-2zM9 18h2v2h-2v-2zM21 18h2v2h-2v-2zM9 13h2v2h-2v-2zM15 23h2v2h-2v-2zM15 18h2v2h-2v-2zM15 13h2v2h-2v-2zM21 13h2v2h-2v-2zM9 7h14v3h-14v-3z"></path>
</symbol>
<symbol id="icon-call-incoming" viewBox="0 0 32 32">
<path fill="#fff" style="fill: var(--color2, #fff)" d="M25.095 18.656c-0.377-0.154-0.781-0.234-1.188-0.234-0.381-0.022-0.761 0.048-1.11 0.202-0.302 0.146-0.59 0.318-0.86 0.516-0.263 0.191-0.504 0.411-0.718 0.656-0.208 0.24-0.41 0.46-0.608 0.658-0.18 0.182-0.374 0.349-0.58 0.5-0.208 0.149-0.463 0.218-0.718 0.195s-0.494-0.137-0.672-0.322c-0.22-0.206-0.439-0.415-0.656-0.624-0.28-0.272-0.624-0.6-1.030-0.986-0.425-0.403-0.847-0.809-1.266-1.218l-1.36-1.328c-0.835-0.816-1.642-1.661-2.42-2.532-0.279-0.307-0.54-0.63-0.782-0.968-0.188-0.27-0.282-0.468-0.282-0.594-0.012-0.226 0.060-0.448 0.202-0.624 0.146-0.188 0.32-0.38 0.516-0.58 0.2-0.196 0.418-0.406 0.656-0.624 0.24-0.22 0.46-0.454 0.658-0.704 0.196-0.25 0.364-0.536 0.5-0.86 0.134-0.32 0.202-0.686 0.202-1.092 0-0.825-0.326-1.617-0.906-2.204-0.374-0.367-0.728-0.753-1.062-1.156-0.382-0.454-0.794-0.882-1.234-1.28-0.427-0.391-0.894-0.737-1.392-1.032-0.453-0.274-0.971-0.42-1.5-0.422-0.825 0.001-1.616 0.326-2.202 0.906-0.542 0.542-1.016 1.026-1.422 1.454-0.39 0.405-0.736 0.85-1.032 1.328-0.287 0.474-0.498 0.99-0.624 1.53-0.147 0.667-0.215 1.349-0.204 2.032 0 1.104 0.178 2.25 0.532 3.438 0.354 1.186 0.832 2.37 1.436 3.546 0.604 1.178 1.34 2.334 2.204 3.47 0.864 1.134 1.802 2.212 2.812 3.234 1.010 1.020 2.084 1.964 3.22 2.828 1.134 0.864 2.296 1.61 3.484 2.234 1.186 0.626 2.38 1.114 3.578 1.468 1.135 0.345 2.314 0.524 3.5 0.532 0.678-0 1.354-0.074 2.016-0.22 0.546-0.123 1.068-0.334 1.546-0.624 0.46-0.28 0.9-0.624 1.328-1.030 0.428-0.408 0.906-0.876 1.438-1.408 0.58-0.587 0.906-1.379 0.906-2.204-0.023-0.351-0.091-0.697-0.204-1.030-0.117-0.349-0.291-0.676-0.514-0.968-0.233-0.306-0.479-0.603-0.736-0.89-0.265-0.297-0.546-0.578-0.842-0.844-0.286-0.256-0.572-0.512-0.86-0.766-0.252-0.222-0.496-0.451-0.734-0.688-0.29-0.29-0.635-0.519-1.016-0.672zM24.361 27.828c-0.522 0.125-1.058 0.183-1.594 0.172-1.028-0.019-2.049-0.182-3.032-0.484-1.1-0.332-2.163-0.777-3.172-1.328-2.243-1.228-4.296-2.776-6.094-4.594-0.914-0.924-1.775-1.9-2.578-2.922-0.78-0.988-1.469-2.044-2.060-3.156-0.551-1.028-1.001-2.106-1.346-3.22-0.313-1.001-0.476-2.043-0.484-3.092-0-0.532 0.063-1.063 0.188-1.58 0.114-0.436 0.286-0.828 0.516-1.17 0.228-0.344 0.51-0.678 0.842-1 0.334-0.324 0.714-0.7 1.14-1.126 0.104-0.107 0.228-0.191 0.366-0.247s0.285-0.084 0.434-0.081c0.124-0.010 0.316 0.072 0.576 0.25s0.542 0.39 0.844 0.64c0.652 0.544 1.254 1.146 1.798 1.798 0.25 0.3 0.458 0.578 0.624 0.828s0.25 0.442 0.25 0.578c0.018 0.227-0.055 0.451-0.202 0.624-0.146 0.168-0.32 0.36-0.516 0.58-0.2 0.218-0.418 0.426-0.656 0.624-0.24 0.198-0.46 0.432-0.658 0.702-0.199 0.272-0.366 0.566-0.5 0.876-0.141 0.342-0.21 0.71-0.202 1.080 0.010 0.426 0.094 0.826 0.25 1.2 0.156 0.376 0.38 0.71 0.672 1l7.452 7.454c0.287 0.294 0.63 0.526 1.008 0.684s0.785 0.238 1.196 0.236c0.375 0.020 0.75-0.049 1.094-0.2 0.601-0.278 1.138-0.677 1.578-1.172 0.22-0.24 0.42-0.46 0.61-0.658 0.186-0.196 0.38-0.364 0.578-0.5 0.182-0.13 0.4-0.2 0.624-0.202 0.146 0 0.344 0.084 0.594 0.25s0.526 0.38 0.828 0.64c0.302 0.26 0.614 0.548 0.938 0.86 0.322 0.312 0.61 0.624 0.86 0.938 0.248 0.312 0.458 0.594 0.624 0.844s0.25 0.44 0.25 0.578c0.002 0.145-0.027 0.29-0.083 0.424s-0.14 0.255-0.245 0.356c-0.448 0.438-0.828 0.82-1.14 1.14-0.303 0.315-0.638 0.598-1 0.844-0.358 0.242-0.754 0.422-1.172 0.532zM30.001 3.408l-9.28 9.296h6.576v2h-10v-10h2v6.576l9.298-9.28 1.406 1.406v0.002z"></path>
</symbol>
<symbol id="icon-generate-pdf" viewBox="0 0 32 32">
<path fill="#fff" style="fill: var(--color2, #fff)" d="M24 24v4h-16v-4h-2v4c0 0.53 0.211 1.039 0.586 1.414s0.884 0.586 1.414 0.586h16c0.53 0 1.039-0.211 1.414-0.586s0.586-0.884 0.586-1.414v-4h-2z"></path>
<path fill="#fff" style="fill: var(--color2, #fff)" d="M21 21l-1.414-1.414-2.586 2.586v-8.172h-2v8.172l-2.586-2.586-1.414 1.414 5 5 5-5zM28 4v-2h-6v10h2v-4h3v-2h-3v-2h4zM17 12h-4v-10h4c0.795 0.001 1.558 0.317 2.12 0.88s0.879 1.325 0.88 2.12v4c-0.001 0.795-0.317 1.558-0.88 2.12s-1.325 0.879-2.12 0.88zM15 10h2c0.265-0 0.519-0.106 0.707-0.293s0.293-0.442 0.293-0.707v-4c-0-0.265-0.106-0.519-0.293-0.707s-0.442-0.293-0.707-0.293h-2v6zM9 2h-5v10h2v-3h3c0.53-0.001 1.038-0.212 1.413-0.587s0.586-0.883 0.587-1.413v-3c-0.001-0.53-0.211-1.039-0.586-1.414s-0.883-0.586-1.414-0.586zM6 7v-3h3l0.001 3h-3.001z"></path>
</symbol>
<symbol id="icon-gps" viewBox="0 0 32 32">
<path fill="#fff" style="fill: var(--color2, #fff)" d="M7.778 23.335c-4.296-4.296-4.296-11.261 0-15.556s11.261-4.296 15.556 0c4.296 4.296 4.296 11.261 0 15.556l-7.778 7.778-7.778-7.778z"></path>
<path fill="#f90" style="fill: var(--color3, #f90)" d="M21 15.5c0 3.038-2.462 5.5-5.5 5.5s-5.5-2.462-5.5-5.5c0-3.038 2.462-5.5 5.5-5.5s5.5 2.462 5.5 5.5z"></path>
</symbol>
<symbol id="icon-phone" viewBox="0 0 32 32">
<path fill="#f90" style="fill: var(--color3, #f90)" d="M27.316 22.853l-5.42-4.928c-0.256-0.233-0.593-0.357-0.939-0.346s-0.674 0.155-0.916 0.404l-3.191 3.281c-0.768-0.147-2.312-0.628-3.901-2.213-1.589-1.591-2.071-3.139-2.213-3.901l3.279-3.192c0.249-0.241 0.393-0.57 0.404-0.916s-0.114-0.683-0.347-0.939l-4.927-5.419c-0.233-0.257-0.557-0.413-0.904-0.434s-0.687 0.093-0.951 0.318l-2.893 2.481c-0.231 0.231-0.368 0.539-0.387 0.865-0.020 0.333-0.401 8.229 5.721 14.355 5.341 5.34 12.032 5.731 13.875 5.731 0.269 0 0.435-0.008 0.479-0.011 0.326-0.018 0.634-0.156 0.864-0.388l2.48-2.895c0.227-0.263 0.342-0.604 0.32-0.95s-0.177-0.671-0.434-0.904z"></path>
</symbol>
<symbol id="icon-play" viewBox="0 0 29 32">
<path fill="#fff" style="fill: var(--color2, #fff)" d="M27.243 13.753c1.73 0.999 1.73 3.495 0 4.494l-22.703 13.107c-1.73 0.999-3.892-0.25-3.892-2.247v-26.215c0-1.997 2.162-3.246 3.892-2.247l22.703 13.107z"></path>
</symbol>
<symbol id="icon-slider-arrow-next" viewBox="0 0 38 32">
<path fill="#fff" style="fill: var(--color2, #fff)" d="M37.414 14.586c0.781 0.781 0.781 2.047 0 2.828l-12.728 12.728c-0.781 0.781-2.047 0.781-2.828 0s-0.781-2.047 0-2.828l11.314-11.314-11.314-11.314c-0.781-0.781-0.781-2.047 0-2.828s2.047-0.781 2.828 0l12.728 12.728zM0 14h36v4h-36v-4z"></path>
</symbol>
<symbol id="icon-slider-arrow-previous" viewBox="0 0 38 32">
<path fill="#fff" style="fill: var(--color2, #fff)" d="M0.586 14.586c-0.781 0.781-0.781 2.047 0 2.828l12.728 12.728c0.781 0.781 2.047 0.781 2.828 0s0.781-2.047 0-2.828l-11.314-11.314 11.314-11.314c0.781-0.781 0.781-2.047 0-2.828s-2.047-0.781-2.828 0l-12.728 12.728zM38 14h-36v4h36v-4z"></path>
</symbol>
<symbol id="icon-telegram" viewBox="0 0 33 32">
<path fill="#40b3e0" style="fill: var(--color4, #40b3e0)" d="M16.442-0c-8.731 0-15.808 7.077-15.808 15.808s7.077 15.808 15.808 15.808 15.808-7.078 15.808-15.808c0-8.731-7.078-15.808-15.808-15.808z"></path>
<path fill="#fff" style="fill: var(--color2, #fff)" d="M24.137 9.093l-2.824 14.236c0 0-0.395 0.987-1.481 0.513l-6.516-4.995-2.369-1.145-3.988-1.343c0 0-0.612-0.217-0.671-0.691s0.691-0.73 0.691-0.73l15.855-6.22c0 0 1.303-0.573 1.303 0.375z"></path>
<path fill="#d2e5f1" style="fill: var(--color5, #d2e5f1)" d="M12.813 23.169c0 0-0.19-0.018-0.427-0.768s-1.441-4.699-1.441-4.699l9.576-6.081c0 0 0.553-0.336 0.533 0 0 0 0.099 0.059-0.198 0.336s-7.523 6.772-7.523 6.772z"></path>
<path fill="#b5cfe4" style="fill: var(--color6, #b5cfe4)" d="M15.809 20.762l-2.577 2.35c0 0-0.202 0.153-0.422 0.057l0.493-4.365z"></path>
</symbol>
<symbol id="icon-whatsapp" viewBox="0 0 32 32">
<path fill="#00e676" style="fill: var(--color7, #00e676)" d="M7.537 28.668l0.585 0.292c2.437 1.458 5.167 2.138 7.896 2.138 8.578 0 15.597-6.997 15.597-15.549 0-4.082-1.657-8.066-4.582-10.982s-6.824-4.567-11.015-4.567c-8.579 0-15.597 6.997-15.5 15.646 0 2.915 0.877 5.734 2.34 8.163l0.39 0.583-1.56 5.734 5.849-1.458z"></path>
<path fill="#fff" style="fill: var(--color2, #fff)" d="M24.531 19.675l-1.072-0.483c0 0-1.559-0.677-2.534-1.16-0.097 0-0.195-0.097-0.292-0.097-0.292 0-0.487 0.097-0.682 0.193 0 0-0.097 0.097-1.462 1.643-0.098 0.193-0.292 0.29-0.487 0.29h-0.098c-0.097 0-0.292-0.097-0.39-0.193l-0.487-0.193c-1.072-0.483-2.046-1.063-2.826-1.837-0.195-0.193-0.487-0.387-0.682-0.58-0.682-0.677-1.364-1.45-1.851-2.32l-0.097-0.193c-0.097-0.097-0.097-0.193-0.195-0.387 0-0.193 0-0.387 0.098-0.483 0 0 0.39-0.483 0.682-0.773 0.195-0.193 0.292-0.483 0.487-0.677 0.195-0.29 0.292-0.677 0.195-0.967-0.097-0.483-1.267-3.093-1.559-3.673-0.195-0.29-0.39-0.387-0.682-0.483h-1.072c-0.195 0-0.39 0.097-0.585 0.097l-0.098 0.097c-0.195 0.097-0.39 0.29-0.585 0.387-0.195 0.193-0.292 0.387-0.487 0.58-0.682 0.87-1.072 1.933-1.072 2.996 0 0.773 0.195 1.547 0.487 2.223l0.098 0.29c0.877 1.836 2.046 3.48 3.606 4.929l0.39 0.387c0.292 0.29 0.585 0.483 0.779 0.773 2.046 1.74 4.385 2.996 7.016 3.673 0.292 0.097 0.682 0.097 0.974 0.193h0.974c0.487 0 1.072-0.193 1.462-0.387 0.292-0.193 0.487-0.193 0.682-0.387l0.195-0.193c0.195-0.193 0.39-0.29 0.585-0.483s0.39-0.387 0.487-0.58c0.195-0.387 0.292-0.87 0.39-1.353v-0.677c0 0-0.098-0.097-0.292-0.193z"></path>
</symbol>
</defs>
</svg>
