<svg aria-hidden="true" style="position:absolute;width:0;height:0" xmlns="http://www.w3.org/2000/svg" overflow="hidden"><defs><symbol id="icon-cross" viewBox="0 0 33 32"><path fill="var(--color1, #d9d9d9)" d="m2.951 1.28 27.546 27.546a1.392 1.392 0 0 1-1.968 1.968L.983 3.248A1.392 1.392 0 0 1 2.951 1.28z"/><path fill="var(--color1, #d9d9d9)" d="M1.56 28.53 29.106.984a1.392 1.392 0 0 1 1.968 1.968L3.528 30.498A1.392 1.392 0 0 1 1.56 28.53z"/></symbol><symbol id="icon-menu" viewBox="0 0 48 32"><path fill="var(--color1, #d9d9d9)" d="M1.6 0h44.8a1.6 1.6 0 1 1 0 3.2H1.6a1.6 1.6 0 1 1 0-3.2zM1.6 14.4h44.8a1.6 1.6 0 1 1 0 3.2H1.6a1.6 1.6 0 1 1 0-3.2zM1.6 28.8h44.8a1.6 1.6 0 1 1 0 3.2H1.6a1.6 1.6 0 1 1 0-3.2z"/></symbol><symbol id="icon-arrow-in-up" viewBox="0 0 32 32"><path d="M7 20a.997.997 0 0 1-1-1V3a.997.997 0 0 1 1-1h18a.997.997 0 0 1 1 1v16a.997.997 0 0 1-1 1h-4a.997.997 0 0 0-1 1 .997.997 0 0 0 1 1h4a3.004 3.004 0 0 0 3-3V3a3.004 3.004 0 0 0-3-3H7a3.004 3.004 0 0 0-3 3v16a3.004 3.004 0 0 0 3 3h4a.997.997 0 0 0 1-1 .997.997 0 0 0-1-1H7z"/><path d="M15.293 8.292a.991.991 0 0 1 .708-.293 1.006 1.006 0 0 1 .708.293l6 6a1 1 0 0 1-.708 1.709 1 1 0 0 1-.708-.293l-4.292-4.294V29a.997.997 0 0 1-1 1 .997.997 0 0 1-1-1V11.414l-4.292 4.294A1 1 0 0 1 9 15a1 1 0 0 1 .293-.708l6-6z"/></symbol><symbol id="icon-arrow-right" viewBox="0 0 20 32"><path fill="var(--color2, #fff)" d="m4.62 29.706-2.747-2.718 11.254-11.136L1.873 4.716 4.62 1.998l13.883 13.854L4.62 29.706z"/></symbol><symbol id="icon-calculator" viewBox="0 0 32 32"><path d="M26 4v24H6V4h20zm0-2H6a2 2 0 0 0-2 2v24a2 2 0 0 0 2 2h20a2 2 0 0 0 2-2V4a2 2 0 0 0-2-2z"/><path  d="M9 23h2v2H9v-2zm12 0h2v2h-2v-2zM9 18h2v2H9v-2zm12 0h2v2h-2v-2zM9 13h2v2H9v-2zm6 10h2v2h-2v-2zm0-5h2v2h-2v-2zm0-5h2v2h-2v-2zm6 0h2v2h-2v-2zM9 7h14v3H9V7z"/></symbol><symbol id="icon-call-incoming" viewBox="0 0 32 32"><path d="M25.095 18.656a3.144 3.144 0 0 0-1.188-.234 2.405 2.405 0 0 0-1.11.202c-.302.146-.59.318-.86.516a4.338 4.338 0 0 0-.718.656c-.208.24-.41.46-.608.658a4.84 4.84 0 0 1-.58.5 1.068 1.068 0 0 1-1.39-.127c-.22-.206-.439-.415-.656-.624-.28-.272-.624-.6-1.03-.986-.425-.403-.847-.809-1.266-1.218l-1.36-1.328a51.64 51.64 0 0 1-2.42-2.532c-.279-.307-.54-.63-.782-.968-.188-.27-.282-.468-.282-.594a.916.916 0 0 1 .202-.624c.146-.188.32-.38.516-.58.2-.196.418-.406.656-.624.24-.22.46-.454.658-.704.196-.25.364-.536.5-.86.134-.32.202-.686.202-1.092 0-.825-.326-1.617-.906-2.204a15.274 15.274 0 0 1-1.062-1.156 13.085 13.085 0 0 0-1.234-1.28 8.405 8.405 0 0 0-1.392-1.032 2.919 2.919 0 0 0-1.5-.422 3.135 3.135 0 0 0-2.202.906 78.355 78.355 0 0 0-1.422 1.454c-.39.405-.736.85-1.032 1.328-.287.474-.498.99-.624 1.53a8.784 8.784 0 0 0-.204 2.032c0 1.104.178 2.25.532 3.438.354 1.186.832 2.37 1.436 3.546a23.314 23.314 0 0 0 2.204 3.47 33.367 33.367 0 0 0 2.812 3.234 30.593 30.593 0 0 0 3.22 2.828 24.735 24.735 0 0 0 3.484 2.234 19.502 19.502 0 0 0 3.578 1.468c1.135.345 2.314.524 3.5.532.678 0 1.354-.074 2.016-.22a5.172 5.172 0 0 0 1.546-.624c.46-.28.9-.624 1.328-1.03.428-.408.906-.876 1.438-1.408.58-.587.906-1.379.906-2.204a4.021 4.021 0 0 0-.204-1.03 3.35 3.35 0 0 0-.514-.968 14.533 14.533 0 0 0-.736-.89 10.815 10.815 0 0 0-.842-.844c-.286-.256-.572-.512-.86-.766a16.446 16.446 0 0 1-.734-.688 3.038 3.038 0 0 0-1.016-.672zm-.734 9.172a6.293 6.293 0 0 1-1.594.172 11.02 11.02 0 0 1-3.032-.484 16.665 16.665 0 0 1-3.172-1.328 26.409 26.409 0 0 1-6.094-4.594 34.21 34.21 0 0 1-2.578-2.922 20.988 20.988 0 0 1-2.06-3.156 18.23 18.23 0 0 1-1.346-3.22 10.632 10.632 0 0 1-.484-3.092c0-.532.063-1.063.188-1.58.114-.436.286-.828.516-1.17a6.09 6.09 0 0 1 .842-1c.334-.324.714-.7 1.14-1.126a1.072 1.072 0 0 1 .8-.328c.124-.01.316.072.576.25s.542.39.844.64a14.14 14.14 0 0 1 1.798 1.798c.25.3.458.578.624.828s.25.442.25.578a.858.858 0 0 1-.202.624c-.146.168-.32.36-.516.58-.2.218-.418.426-.656.624-.24.198-.46.432-.658.702a4.518 4.518 0 0 0-.5.876c-.141.342-.21.71-.202 1.08.01.426.094.826.25 1.2.156.376.38.71.672 1l7.452 7.454a3.054 3.054 0 0 0 2.204.92c.375.02.75-.049 1.094-.2a4.817 4.817 0 0 0 1.578-1.172c.22-.24.42-.46.61-.658.186-.196.38-.364.578-.5.182-.13.4-.2.624-.202.146 0 .344.084.594.25s.526.38.828.64c.302.26.614.548.938.86.322.312.61.624.86.938.248.312.458.594.624.844s.25.44.25.578a1.065 1.065 0 0 1-.328.78c-.448.438-.828.82-1.14 1.14a6.304 6.304 0 0 1-1 .844 3.836 3.836 0 0 1-1.172.532zm5.64-24.42-9.28 9.296h6.576v2h-10v-10h2v6.576L28.595 2l1.406 1.406v.002z"/></symbol><symbol id="icon-generate-pdf" viewBox="0 0 32 32"><path d="M24 24v4H8v-4H6v4a2 2 0 0 0 2 2h16a2 2 0 0 0 2-2v-4h-2z"/><path d="m21 21-1.414-1.414L17 22.172V14h-2v8.172l-2.586-2.586L11 21l5 5 5-5zm7-17V2h-6v10h2V8h3V6h-3V4h4zm-11 8h-4V2h4a3 3 0 0 1 3 3v4a3 3 0 0 1-3 3zm-2-2h2a1.003 1.003 0 0 0 1-1V5a1.003 1.003 0 0 0-1-1h-2v6zM9 2H4v10h2V9h3a2.004 2.004 0 0 0 2-2V4a2.005 2.005 0 0 0-2-2zM6 7V4h3l.001 3H6z"/></symbol><symbol id="icon-gps" viewBox="0 0 32 32"><path fill="var(--color2, #fff)" d="M7.778 23.335c-4.296-4.296-4.296-11.261 0-15.556s11.261-4.296 15.556 0c4.296 4.296 4.296 11.261 0 15.556l-7.778 7.778-7.778-7.778z"/><path fill="var(--color3, #f90)" d="M21 15.5a5.5 5.5 0 1 1-11 0 5.5 5.5 0 1 1 11 0z"/></symbol><symbol id="icon-phone" viewBox="0 0 32 32"><path fill="var(--color3, #f90)" d="m27.316 22.853-5.42-4.928a1.332 1.332 0 0 0-1.855.058l-3.191 3.281c-.768-.147-2.312-.628-3.901-2.213-1.589-1.591-2.071-3.139-2.213-3.901l3.279-3.192a1.333 1.333 0 0 0 .057-1.855L9.145 4.684c-.233-.257-.557-.413-.904-.434s-.687.093-.951.318L4.397 7.049a1.332 1.332 0 0 0-.387.865c-.02.333-.401 8.229 5.721 14.355C15.072 27.609 21.763 28 23.606 28c.269 0 .435-.008.479-.011.326-.018.634-.156.864-.388l2.48-2.895a1.334 1.334 0 0 0-.114-1.854z"/></symbol><symbol id="icon-play" viewBox="0 0 29 32"><path fill="var(--color2, #fff)" d="M27.243 13.753c1.73.999 1.73 3.495 0 4.494L4.54 31.354c-1.73.999-3.892-.25-3.892-2.247V2.892C.648.895 2.81-.354 4.54.645l22.703 13.107z"/></symbol><symbol id="icon-slider-arrow-next" viewBox="0 0 38 32"><path fill="var(--color2, #fff)" d="M37.414 14.586a2 2 0 0 1 0 2.828L24.686 30.142a2 2 0 1 1-2.828-2.828L33.172 16 21.858 4.686a2 2 0 1 1 2.828-2.828l12.728 12.728zM0 14h36v4H0v-4z"/></symbol><symbol id="icon-slider-arrow-previous" viewBox="0 0 38 32"><path fill="var(--color2, #fff)" d="M.586 14.586a2 2 0 0 0 0 2.828l12.728 12.728a2 2 0 1 0 2.828-2.828L4.828 16 16.142 4.686a2 2 0 1 0-2.828-2.828L.586 14.586zM38 14H2v4h36v-4z"/></symbol><symbol id="icon-telegram" viewBox="0 0 33 32"><path d="M16.442 0C7.711 0 .634 7.077.634 15.808s7.077 15.808 15.808 15.808S32.25 24.538 32.25 15.808C32.25 7.077 25.172 0 16.442 0z"/><path fill="var(--color2, #fff)" d="m24.137 9.093-2.824 14.236s-.395.987-1.481.513l-6.516-4.995-2.369-1.145-3.988-1.343s-.612-.217-.671-.691.691-.73.691-.73l15.855-6.22s1.303-.573 1.303.375z"/><path fill="var(--color5, #d2e5f1)" d="M12.813 23.169s-.19-.018-.427-.768-1.441-4.699-1.441-4.699l9.576-6.081s.553-.336.533 0c0 0 .099.059-.198.336s-7.523 6.772-7.523 6.772z"/><path fill="var(--color6, #b5cfe4)" d="m15.809 20.762-2.577 2.35s-.202.153-.422.057l.493-4.365z"/></symbol><symbol id="icon-whatsapp" viewBox="0 0 32 32"><path d="m7.537 28.668.585.292c2.437 1.458 5.167 2.138 7.896 2.138 8.578 0 15.597-6.997 15.597-15.549 0-4.082-1.657-8.066-4.582-10.982S20.209 0 16.018 0C7.439 0 .421 6.997.518 15.646c0 2.915.877 5.734 2.34 8.163l.39.583-1.56 5.734 5.849-1.458z"/><path fill="var(--color2, #fff)" d="m24.531 19.675-1.072-.483s-1.559-.677-2.534-1.16c-.097 0-.195-.097-.292-.097-.292 0-.487.097-.682.193 0 0-.097.097-1.462 1.643a.537.537 0 0 1-.487.29h-.098c-.097 0-.292-.097-.39-.193l-.487-.193c-1.072-.483-2.046-1.063-2.826-1.837-.195-.193-.487-.387-.682-.58-.682-.677-1.364-1.45-1.851-2.32l-.097-.193c-.097-.097-.097-.193-.195-.387 0-.193 0-.387.098-.483 0 0 .39-.483.682-.773.195-.193.292-.483.487-.677.195-.29.292-.677.195-.967-.097-.483-1.267-3.093-1.559-3.673-.195-.29-.39-.387-.682-.483H9.525c-.195 0-.39.097-.585.097l-.098.097c-.195.097-.39.29-.585.387-.195.193-.292.387-.487.58-.682.87-1.072 1.933-1.072 2.996 0 .773.195 1.547.487 2.223l.098.29a16.09 16.09 0 0 0 3.606 4.929l.39.387c.292.29.585.483.779.773 2.046 1.74 4.385 2.996 7.016 3.673.292.097.682.097.974.193h.974c.487 0 1.072-.193 1.462-.387.292-.193.487-.193.682-.387l.195-.193c.195-.193.39-.29.585-.483s.39-.387.487-.58c.195-.387.292-.87.39-1.353v-.677s-.098-.097-.292-.193z"/></symbol></defs></svg>